<?xml version="1.0" encoding="UTF-8"?><svg id="a" xmlns="http://www.w3.org/2000/svg" viewBox="0 0 199.52 63.49"><path d="M89.03,30.99c2.99-4.95,11.95-8.91,18.25.82,4.65,6.6,12.6,12.68,12.6,12.68,0,0,5.99,4.64,2.18,13.53-3.83,8.9-17.76,4.27-17.76,4.27,0,0-5.13-1.61-11.13-.29-5.94,1.29-11.1.78-11.1.78h-.06c-.68,0-7.03-.29-8.9-8.55-1.99-8.74,6.95-13.52,7.62-14.33.68-.82,5.33-3.98,8.31-8.91h0ZM91.94,36.02v5.86h-4.83s-4.84.37-6.52,5.81c-.6,3.61.52,5.74.71,6.22.23.44,1.76,3.08,5.68,3.84h9.06v-21.67l-4.09-.05h0ZM102.49,42.32l-4.24.06v11.42s.2,2.87,4.24,3.88h10.43v-15.3h-4.5v11.52h-4.34c-.23-.05-1.38-.33-1.6-1.3v-10.28h0ZM91.86,45.36v8.84h-3.65s-2.54-.12-3.31-3.04c-.39-1.29.06-2.76.24-3.35.21-.59,1.05-1.92,2.82-2.45h3.9,0ZM119.87,19.29c6.16,0,7.81,5.94,7.81,7.9s.83,10.41-6.79,10.57c-7.66.15-7.97-5.12-7.97-8.91s.83-9.56,6.95-9.56h0ZM75.43,14.69c4.49-.4,7.79,4.44,8.13,7.23.22,1.82,1.17,10.05-5.81,11.55-6.95,1.47-9.55-6.5-8.8-10.24,0,0,.83-8.08,6.48-8.54h0ZM101.46,10.39c.44-3.77,4.98-9.57,8.64-8.71,3.65.81,6.96,5.58,6.3,9.7-.64,4.12-3.97,9.57-9.12,8.89-5.13-.64-6.3-5.27-5.82-9.88h0ZM90.69,0c3.85,0,6.97,4.38,6.97,9.81s-3.12,9.81-6.97,9.81-6.97-4.39-6.97-9.81,3.13-9.81,6.97-9.81Z" style="fill:#2932e1;"/><path d="M17.02,28.99c.27,0,11.03-.28,11.5,8.51,0,0,.56,5.83-3.91,8.14,0,0,5.29,2.02,5.05,7.84.02.2.72,8.74-10.43,8.76H0V28.99h17.02ZM162.58,30.09v4.82h-11.53l-1.01,2.99h11.72v21.26s.23,2.73-2.42,2.88h-.23s-27.81,0-27.81,0v-24.14h11.72l1.27-2.93h-13.77l.05-4.87h32.02,0ZM186.61,27.8v2.42h12.58v4h-27.69v27.78h-5.2v-31.91h14.45v-2.29s5.87,0,5.87,0ZM33.02,37.93l14.91.04c7.09.97,8.01,6.84,8.01,6.84v17.15h-18.85c-4.07-.74-5.43-3.8-5.61-4.28-.16-.45-.51-1.73-.26-4.33,1.49-5.48,6.15-5.91,6.15-5.91h11.84v-1.77c0-1.97-3.11-2.71-3.11-2.71h-13.08v-5.03h0ZM198.99,48.56v2.9l-9.47,5.4s1.4.88,2.99,1.16l.2.03h6.28v3.56h-8.31s-3.21-.63-4.88-2.13c0,0-3.84,1.91-6.02,2.42l-.18.04h-7.34v-3.57h5.41s2.54-.81,3.32-1.47l.08-.08-8.08-4.63v-3.63h26.01ZM66.28,37.95v23.94h-6.99v-23.94h6.99,0ZM156.37,52.06h-19.27v5.62h18.46c.44,0,.76-.68.81-.79h0v-4.84h0ZM49.21,52.1h-9.33s-1.27.36-2.03,1.85c-.34.72-.06,1.53.04,1.71.08.22.5,1.07,1.81,1.58h9.51v-5.14h0ZM18.78,48.9H7.31v7.17h11.51c2.04-.32,2.76-1.58,2.76-1.58,1-1.34.53-3.2.53-3.2-.78-1.93-2.96-2.32-2.96-2.32l-.38-.07h0ZM189.76,52.1h-8.83l4.23,2.41,4.59-2.41h0ZM156.33,42.12h-19.25v5.27h19.25v-5.27ZM195.79,34.96v1.85h3.73v3.62h-3.73v4.24s-.3,2.38-2.54,2.54h-.23s-17.53,0-17.53,0v-6.78h-3.18l-.07-3.62h3.25v-1.78h4.83v1.78h10.39v-1.85h5.07ZM190.72,40.36h-10.47v3.34h9.44c.54,0,.97-.69,1.03-.79h0v-2.56ZM21.59,37.28c-.73-1.79-2.9-1.81-3.17-1.81H7.31v6.9h11.1c2.07-.33,2.85-1.72,2.85-1.72.8-1.38.33-3.37.33-3.37h0ZM66.28,29.2v6.09h-6.99v-6.09h6.99,0Z" style="fill:#e10602;"/></svg>