<?xml version="1.0" encoding="UTF-8"?><svg id="a" xmlns="http://www.w3.org/2000/svg" viewBox="0 0 152.04 188.89"><path d="M84.39,188.88c-5.76,0-10.7-2.88-13.58-7.82l-25.93-45.27-31.28,35.39c-2.88,3.29-7.82,3.7-11.11.82-1.65-1.65-2.47-3.7-2.47-5.76V7.81C-.39,1.64,5.78-2.07,11.13,1.23l137.04,78.6c3.7,2.06,4.94,7,2.88,10.7-1.23,2.06-2.88,3.29-5.35,3.7l-46.5,9.47,25.93,45.27c4.53,7.41,1.65,17.28-5.76,21.4l-27.16,16.46c-2.47,1.23-4.94,2.06-7.82,2.06h0Z" style="fill:#fff;"/><path d="M84.39,188.88c-5.76,0-10.7-2.88-13.58-7.82l-25.93-45.27-31.28,35.39c-2.88,3.29-7.82,3.7-11.11.82-1.65-1.65-2.47-3.7-2.47-5.76V7.81C-.39,1.64,5.78-2.07,11.13,1.23l137.04,78.6c3.7,2.06,4.94,7,2.88,10.7-1.23,2.06-2.88,3.29-5.35,3.7l-46.5,9.47,25.93,45.27c4.53,7.41,1.65,17.28-5.76,21.4l-27.16,16.46c-2.47,1.23-4.94,2.06-7.82,2.06h0ZM46.12,114.4c2.88,0,5.35,1.65,7,4.12l31.69,54.73,27.16-15.64-31.69-54.73c-2.06-3.7-.82-8.64,2.88-10.7.82-.41,1.65-.82,2.47-.82l36.63-7.41L15.26,22.21v123.46l25.1-27.98c1.23-2.47,3.29-3.29,5.76-3.29Z" style="fill:#2c2c2c;"/></svg>