<?xml version="1.0" encoding="UTF-8"?>
<svg id="a" xmlns="http://www.w3.org/2000/svg" version="1.1" viewBox="0 0 33.87 117.45">
  <!-- Generator: Adobe Illustrator 29.8.1, SVG Export Plug-In . SVG Version: 2.1.1 Build 2)  -->
  <defs>
    <style>
      .st0 {
        fill: #fff;
      }
    </style>
  </defs>
  <path class="st0" d="M20.57,0C24.45,0,27.6,3.15,27.6,7.03s-3.15,7.03-7.03,7.03-7.03-3.15-7.03-7.03h0C13.54,3.15,16.69,0,20.57,0ZM33.63,37.8l-17.62,65.75c5.08-.77,9.57-3.72,12.29-8.07,0-.01.12-.2,0,0,.6-1.04,1.93-1.4,2.97-.8.85.49,1.27,1.49,1.02,2.44l-1.26,4.69c-3.01,11.25-14.57,17.94-25.83,14.93-3.75-1.01-5.98-4.86-4.97-8.61L17.86,42.37c-5.08.77-9.57,3.72-12.29,8.07,0,0-.12.2,0,0-.6,1.04-1.93,1.4-2.97.8-.85-.49-1.27-1.49-1.02-2.44l1.26-4.69c3.01-11.25,14.58-17.93,25.83-14.92h0c3.74,1.01,5.96,4.86,4.96,8.6h0Z"/>
</svg>